<?xml version="1.0" encoding="utf-8"?>
<!-- Generator: Adobe Illustrator 18.1.1, SVG Export Plug-In . SVG Version: 6.00 Build 0)  -->
<svg version="1.1" id="Layer_1" xmlns="http://www.w3.org/2000/svg" xmlns:xlink="http://www.w3.org/1999/xlink" x="0px" y="0px"
	 viewBox="0 0 720 504" enable-background="new 0 0 720 504" xml:space="preserve">
<path d="M456.6,223.4l-96-51l-96,51l11.1,22.1l11.4-6.1v92.1h146v-92.7l12.5,6.7L456.6,223.4z M424.8,323.3H295.3v-88.2l65.3-34.9
	l64.2,34.3V323.3z M360.6,190.8l-81.3,43.4l-3.7-7.3l85-45.2l85,45.2l-3.7,7.3L360.6,190.8z"/>
<path d="M401.1,242c-3.9-4.5-8.8-6.9-14.6-7.3c-10.1-0.6-20.3,5.5-25.8,9.4c-5.5-4-15.7-10-25.8-9.4c-5.8,0.4-10.7,2.8-14.6,7.3
	c-6.5,7.4-8.9,15.6-7.3,24.3c4.9,25.9,45.5,47.2,47.2,48c1.7-0.9,43.3-22.2,48.2-48C410,257.6,407.6,249.4,401.1,242z M400.3,264.8
	c-3.4,18.1-30.2,35-39.6,40.4c-9.4-5.4-36.2-22.3-39.6-40.4c-1.2-6.2,0.6-11.9,5.4-17.3c2.4-2.8,5.4-4.2,8.9-4.5
	c11-0.7,25.3,11.3,25.4,11.4c3.5-3.2,16-12,25.2-11.4c3.6,0.2,6.5,1.7,8.9,4.5C399.7,252.9,401.5,258.6,400.3,264.8z"/>
</svg>
