<?xml version="1.0" encoding="utf-8"?>
<!-- Generator: Adobe Illustrator 18.1.1, SVG Export Plug-In . SVG Version: 6.00 Build 0)  -->
<svg version="1.1" id="Layer_1" xmlns="http://www.w3.org/2000/svg" xmlns:xlink="http://www.w3.org/1999/xlink" x="0px" y="0px"
	 viewBox="0 0 720 504" enable-background="new 0 0 720 504" xml:space="preserve">
<g>
	<path d="M323.7,220.3h-8.5c0-17.2,8-27.6,14.6-33.3c10.9-9.2,25.2-11.9,33.8-10.5l-1.4,8.4c-7-1.2-18.4,1.4-26.9,8.5
		C327.6,200.1,323.7,209.1,323.7,220.3z"/>
	<path d="M371.9,263.4l-2.2-8.2c11.6-3.1,13-4.8,18.5-13.2l7.1,4.7C388.7,256.7,385.6,259.7,371.9,263.4z"/>
	<path d="M419,220.3c0-32.2-26.2-58.4-58.4-58.4s-58.4,26.2-58.4,58.4c0,15.4,6,29.3,15.8,39.8l14.7,44.6h-6.9l11.1,37h46.1l11.1-37
		h-7.4l14.3-42.3C412,251.8,419,236.8,419,220.3z M360.6,170.4c27.5,0,49.9,22.4,49.9,49.9c0,27.5-22.4,49.9-49.9,49.9
		c-27.5,0-49.9-22.4-49.9-49.9C310.7,192.8,333.1,170.4,360.6,170.4z M363.4,304.7v-26.1c3.5-0.2,6.9-0.6,10.3-1.4l-5.4,27.5H363.4z
		 M351.3,304.7l-6-28.1c4,1.1,8.2,1.7,12.4,2v26.1H351.3z M326.4,267.5c3.9,2.8,8.1,5.2,12.6,7l6.5,30.2h-6.9L326.4,267.5z
		 M376.5,333.1h-33.4l-6-19.9h45.3L376.5,333.1z M380.6,304.7H374l5.8-29.3c4.5-1.6,8.9-3.7,12.8-6.3L380.6,304.7z"/>
</g>
</svg>
