<?xml version="1.0" encoding="utf-8"?>
<!-- Generator: Adobe Illustrator 18.1.1, SVG Export Plug-In . SVG Version: 6.00 Build 0)  -->
<svg version="1.1" id="Layer_1" xmlns="http://www.w3.org/2000/svg" xmlns:xlink="http://www.w3.org/1999/xlink" x="0px" y="0px"
	 viewBox="0 0 720 504" enable-background="new 0 0 720 504" xml:space="preserve">
<g>
	<g>
		<path fill="#FFFFFF" d="M363.2,254.8c-2.5-27.3,16.3-52.3,44.3-62.1c-12-7-26.2-10.5-41.1-9.1c-38,3.5-66,37.1-62.5,75.1
			c3.5,38,37.1,66,75.1,62.5c13.5-1.2,25.7-6.3,35.7-13.9C387,301.6,365.6,281,363.2,254.8z"/>
		<path d="M372.6,325.4c-18.2,0-35.6-6.7-49.1-19c-13.6-12.3-22-29.2-23.6-47.4c-3.7-40.1,26-75.8,66.1-79.5
			c15.1-1.4,30.4,2,43.4,9.6l7.5,4.4l-8.1,2.9c-26.8,9.5-43.9,33.3-41.7,58c2.2,23.8,21.6,43.4,48.3,48.9l8.6,1.8l-7,5.3
			c-10.9,8.4-24,13.5-37.7,14.7C377.1,325.3,374.9,325.4,372.6,325.4z M372.8,187.2c-2,0-4,0.1-6,0.3c-35.7,3.3-62.2,35-58.9,70.8
			c1.5,16.3,9,31.3,21.1,42.3c12,10.9,27.5,16.9,43.7,16.9c2,0,4-0.1,6-0.3c9.4-0.9,18.4-3.7,26.4-8.3
			c-25.6-8.4-43.6-29.1-45.9-53.7c-2.3-25.7,13.3-50.4,38.7-62.8C390,189,381.4,187.2,372.8,187.2z"/>
	</g>
	<g>
		<path fill="#FFFFFF" d="M353.6,227.4c-0.2,2.7-6.5,4.4-14.2,3.9c-7.7-0.5-13.7-3.2-13.5-5.8"/>
		<path d="M356.1,227.6c-0.3,4.8-8,6.6-15.7,6.2c-0.4,0-0.8,0-1.1-0.1c-4-0.3-7.7-1.1-10.5-2.3c-4.6-2-5.4-4.5-5.3-6.2l4.5,1.6
			c0-0.1-3.6-1.3-3.6-1.4c1.4,0.8,8.3,2.8,15.3,3.3c7,0.5,15.1-0.9,15.6-1.6"/>
	</g>
	<path d="M340.8,274.7c0.4,0.8,9.3,3.1,16.3,3.4c0,0,0.1,0,0.1,0c7,0.3,11-1.3,11.5-2.1c0,0-0.1,0.1-0.1,0.3l5,0.2
		c-0.1,1.7-1.2,4.1-6,5.5c-2.9,0.9-6.7,1.2-10.6,1c0,0-0.1,0-0.1,0c-8.1-0.4-16.3-3.1-16-8.2"/>
</g>
</svg>
