<?xml version="1.0" encoding="utf-8"?>
<!-- Generator: Adobe Illustrator 18.1.1, SVG Export Plug-In . SVG Version: 6.00 Build 0)  -->
<svg version="1.1" id="Layer_1" xmlns="http://www.w3.org/2000/svg" xmlns:xlink="http://www.w3.org/1999/xlink" x="0px" y="0px"
	 viewBox="0 0 720 504" enable-background="new 0 0 720 504" xml:space="preserve">
<g>
	<path d="M417,265.6c3.8-3.8,3.8-9.9,0-13.6l-34.1-34.1l4.4-4.4c1.9-1.9,2.9-4.4,2.9-7.1c0-1.7-0.5-3.3-1.3-4.8
		c0.8-0.3,1.6-0.8,2.3-1.4l0.3-0.3c1.2-1.2,1.8-2.7,1.8-4.4c0-1.7-0.6-3.2-1.8-4.4l-11.4-11.4c-2.3-2.3-6.4-2.3-8.7,0l-0.3,0.3
		c-0.8,0.8-1.2,1.7-1.5,2.6c-3.6-1.4-8.1-0.7-10.9,2.1l-11.4,11.4l-1.6-1.6c-3.7-3.7-10.1-3.7-13.7,0l-4.2,4.2
		c-1.8,1.8-2.8,4.3-2.8,6.9c0,2.6,1,5,2.8,6.9l6.1,6.1c-0.3,0.2-0.6,0.4-0.9,0.7l-0.2,0.2c-2.8,3.5-6.4,12-0.1,18.8
		c3.2,3.4,6.8,5.2,10.6,5.2c5.7,0,9.6-3.9,9.8-4.1c0.3-0.3,0.5-0.6,0.7-0.9l6.7,6.7c1.8,1.8,4.3,2.8,6.9,2.8c2.6,0,5-1,6.9-2.8
		l4.2-4.2c3.8-3.8,3.8-9.9,0-13.7l-2.6-2.6l3.1-3.1l34.1,34.1c1.6,1.6,1.6,4.1,0.1,5.6l-36.7,33.7v9.6c-6.8,0.2-19.1,0.9-23.6,3.9
		c-3,2-3.9,4.5-4.1,6.2c-0.5,4.7,3.2,8.9,3.6,9.3l0.8,0.9h52.5l0.8-0.8c0.4-0.4,3.9-4.1,3.6-8.7c-0.1-1.8-0.9-4.4-3.8-6.7
		c-4.4-3.4-17.5-4-24.3-4.1v-7.1L417,265.6z M349,235.6c0,0-2.6,2.5-5.9,2.5c-2.2,0-4.4-1.1-6.5-3.4c-4.3-4.6-0.5-10.3,0.3-11.4
		c0.3-0.2,0.5-0.2,0.8,0.1l11.4,11.4c0.1,0.1,0.2,0.3,0.2,0.4C349.2,235.3,349.2,235.5,349,235.6z M374.5,231.4
		c1.6,1.6,1.6,4.2,0,5.8l-4.2,4.2c-1.5,1.5-4.3,1.5-5.8,0l-32.8-32.8c-0.8-0.8-1.2-1.8-1.2-2.9c0-1.1,0.4-2.1,1.2-2.9l4.2-4.2
		c0.8-0.8,1.8-1.2,2.9-1.2c1.1,0,2.1,0.4,2.9,1.2l5.5,5.5l15.4-15.4c1.7-1.7,4.6-1.7,6.3,0l14.5,14.5c0.8,0.8,1.3,2,1.3,3.1
		s-0.5,2.3-1.3,3.1L368,224.9L374.5,231.4z"/>
	<rect x="316.7" y="240.1" transform="matrix(0.7218 0.6921 -0.6921 0.7218 263.1151 -151.0693)" width="5.6" height="23.4"/>
	<rect x="308.1" y="212.2" transform="matrix(0.3164 0.9486 -0.9486 0.3164 425.2676 -141.621)" width="5.6" height="24.2"/>
	<rect x="343.7" y="248.1" transform="matrix(0.9784 0.2065 -0.2065 0.9784 61.2302 -65.9507)" width="5.6" height="24.3"/>
</g>
</svg>
