<?xml version="1.0" encoding="utf-8"?>
<!-- Generator: Adobe Illustrator 18.1.1, SVG Export Plug-In . SVG Version: 6.00 Build 0)  -->
<svg version="1.1" id="Layer_1" xmlns="http://www.w3.org/2000/svg" xmlns:xlink="http://www.w3.org/1999/xlink" x="0px" y="0px"
	 viewBox="0 0 720 504" enable-background="new 0 0 720 504" xml:space="preserve">
<g>
	<path d="M359.6,192.6c-5.6,0-10.1-4.5-10.1-10.1c0-5.6,4.5-10.1,10.1-10.1s10.1,4.5,10.1,10.1C369.7,188,365.1,192.6,359.6,192.6z
		 M359.6,178.2c-2.4,0-4.3,1.9-4.3,4.3c0,2.4,1.9,4.3,4.3,4.3s4.3-1.9,4.3-4.3C363.8,180.1,361.9,178.2,359.6,178.2z"/>
	<path d="M359.6,216.3c-5.6,0-10.1-4.5-10.1-10.1S354,196,359.6,196s10.1,4.5,10.1,10.1S365.1,216.3,359.6,216.3z M359.6,201.9
		c-2.4,0-4.3,1.9-4.3,4.3c0,2.4,1.9,4.3,4.3,4.3s4.3-1.9,4.3-4.3C363.8,203.8,361.9,201.9,359.6,201.9z"/>
	<path d="M359.6,239.7c-5.6,0-10.1-4.5-10.1-10.1c0-5.6,4.5-10.1,10.1-10.1s10.1,4.5,10.1,10.1C369.7,235.2,365.1,239.7,359.6,239.7
		z M359.6,225.3c-2.4,0-4.3,1.9-4.3,4.3s1.9,4.3,4.3,4.3s4.3-1.9,4.3-4.3S361.9,225.3,359.6,225.3z"/>
	<path d="M382.8,191.2l3.1-8.7l9.1-3.2v-5.5h-15.1v-6.1h3.1v-5.9h-3.1h-40.6h-3.4v5.9h3.4v6.1h-14.9v5.5l9.1,3.2l3.1,8.7h2.7v6.3
		h-14.9v5.5l9.1,3.2l3.1,8.7h2.7v6h-14.9v5.5l9.1,3.2l3.1,8.7h2.7v12.2h17.3v65.1c-5,0.2-10.4,1.3-12,4.4c-2.3,4.3-0.5,15.3,0,18.6
		l0.4,2.4h28.2l0.6-2.2c1.3-5,3.9-17.1-1.1-20.7c-2.4-1.7-6.9-2.3-10.2-2.5v-65.2h17.5v-12.2h2.9l3.1-8.7l9.1-3.2v-5.5h-15.1v-6h2.9
		l3.1-8.7l9.1-3.2v-5.5h-15.1v-6.3H382.8z M374,244.6h-28.9v-76.9H374V244.6z"/>
</g>
</svg>
