<?xml version="1.0" encoding="utf-8"?>
<!-- Generator: Adobe Illustrator 18.1.1, SVG Export Plug-In . SVG Version: 6.00 Build 0)  -->
<svg version="1.1" id="Layer_1" xmlns="http://www.w3.org/2000/svg" xmlns:xlink="http://www.w3.org/1999/xlink" x="0px" y="0px"
	 viewBox="0 0 720 504" enable-background="new 0 0 720 504" xml:space="preserve">
<path d="M342.8,329.9l-26.2-11l6.2-18.8l-10.1-10.1l-19.7,5.2l-11.3-28l17.6-7.2l0.4-14l-17.2-12l10.6-25.1l19.7,4.9
	c2.9-3,7.1-7.5,9.5-9.8c-0.6-2.8-2.9-9.4-5.1-14.7l-1.5-3.7l27.9-11.6l10.4,16.3h13.8l7.6-16.5l27.8,11.3l-4.3,16.7l12.1,11.8
	l15.9-4.8l10.8,25.9l-15.2,8.9V260l15.5,8.4l-11.1,27l-16.8-4.2l-12.1,10l6.6,17L378,329.7l-10.2-15.9h-15.5L342.8,329.9z
	 M326.5,314.5l13,5.4l8.3-14h24.4l8.9,13.9l13.4-5.8l-6-15.3l19.7-16.2l14,3.5l5.7-14l-13.3-7.2v-25.5l13.1-7.7l-5.3-12.8l-13.5,4.1
	L390,204.5l3.7-14.5l-14.2-5.8l-6.5,14.2h-23.3l-9.1-14.3l-14.4,6c0.6,1.5,1.2,3.3,1.9,5.1c2.8,8,3.5,11.9,0.5,14.1
	c-1,0.8-6.8,6.7-11.5,11.8l-1.6,1.7l-17.6-4.4l-5.4,12.8l15.4,10.8l-0.7,23.5l-15,6.2l5.7,14.1l17.3-4.6L332,298L326.5,314.5z
	 M360.9,291.2c-21.5,0-39-17.5-39-39s17.5-39,39-39s39,17.5,39,39S382.4,291.2,360.9,291.2z M360.9,221.1c-17.1,0-31,13.9-31,31
	c0,17.1,13.9,31,31,31c17.1,0,31-13.9,31-31C391.9,235.1,378,221.1,360.9,221.1z"/>
</svg>
